{
  "accessors": [
    {
      "bufferView": 3,
      "componentType": 5126,
      "count": 957,
      "max": [
        1.5304299592971802,
        3.647273063659668,
        0.42980000376701355
      ],
      "min": [
        -1.5304299592971802,
        0.013253122568130493,
        -1.6589900255203247
      ],
      "type": "VEC3"
    },
    {
      "bufferView": 3,
      "byteOffset": 11484,
      "componentType": 5126,
      "count": 957,
      "max": [
        1.0,
        0.9996958374977112,
        0.9999455809593201
      ],
      "min": [
        -1.0,
        -1.0,
        -0.9996634721755981
      ],
      "type": "VEC3"
    },
    {
      "bufferView": 2,
      "componentType": 5126,
      "count": 957,
      "max": [
        0.994379997253418,
        0.9985499978065491
      ],
      "min": [
        -0.0008099999977275729,
        0.01534000039100647
      ],
      "type": "VEC2"
    },
    {
      "bufferView": 1,
      "componentType": 5125,
      "count": 1359,
      "type": "SCALAR"
    },
    {
      "bufferView": 5,
      "componentType": 5126,
      "count": 28,
      "max": [
        1.4217400550842285,
        1.4151147603988647,
        0.5325838327407837,
        0.0,
        1.419479489326477,
        1.421384572982788,
        1.2740639448165894,
        0.0,
        0.14336827397346497,
        1.4215552806854248,
        1.421384572982788,
        0.0,
        3.9067800045013428,
        2.589210033416748,
        4.033199787139893,
        1.0
      ],
      "min": [
        -1.4217400550842285,
        -1.4151147603988647,
        -0.5325838327407837,
        0.0,
        -1.419479489326477,
        -1.418470025062561,
        -1.4215694665908813,
        0.0,
        -0.3371656537055969,
        -1.3030105829238892,
        -0.10691485553979874,
        0.0,
        -3.9067800045013428,
        -3.6122100353240967,
        -0.981220006942749,
        1.0
      ],
      "type": "MAT4"
    },
    {
      "bufferView": 0,
      "componentType": 5123,
      "count": 957,
      "type": "VEC4"
    },
    {
      "bufferView": 4,
      "componentType": 5126,
      "count": 957,
      "max": [
        1.0,
        0.5,
        0.029230935499072075,
        0.0
      ],
      "min": [
        0.5,
        0.0,
        0.0,
        0.0
      ],
      "type": "VEC4"
    }
  ],
  "asset": {
    "extras": {
      "author": "chained_tan (https://sketchfab.com/ch_fren)",
      "license": "CC-BY-4.0 (http://creativecommons.org/licenses/by/4.0/)",
      "source": "https://sketchfab.com/3d-models/pikamee-voms-5c8e8dc6b0ff45078000243688c9e94e",
      "title": "pikamee (voms)"
    },
    "generator": "Sketchfab-11.49.0",
    "version": "2.0"
  },
  "bufferViews": [
    {
      "buffer": 0,
      "byteLength": 7656,
      "byteStride": 8,
      "name": "shortBufferViews",
      "target": 34962
    },
    {
      "buffer": 0,
      "byteLength": 5436,
      "byteOffset": 7656,
      "name": "floatBufferViews",
      "target": 34963
    },
    {
      "buffer": 0,
      "byteLength": 7656,
      "byteOffset": 13092,
      "byteStride": 8,
      "name": "floatBufferViews",
      "target": 34962
    },
    {
      "buffer": 0,
      "byteLength": 22968,
      "byteOffset": 20748,
      "byteStride": 12,
      "name": "floatBufferViews",
      "target": 34962
    },
    {
      "buffer": 0,
      "byteLength": 15312,
      "byteOffset": 43716,
      "byteStride": 16,
      "name": "floatBufferViews",
      "target": 34962
    },
    {
      "buffer": 0,
      "byteLength": 1792,
      "byteOffset": 59028,
      "name": "floatBufferViews"
    }
  ],
  "buffers": [
    {
      "byteLength": 60820,
      "uri": "scene.bin"
    }
  ],
  "extensionsUsed": [
    "KHR_materials_unlit"
  ],
  "images": [
    {
      "uri": "textures/dayo_material_baseColor.png"
    }
  ],
  "materials": [
    {
      "alphaMode": "BLEND",
      "doubleSided": true,
      "extensions": {
        "KHR_materials_unlit": {}
      },
      "name": "dayo_material",
      "pbrMetallicRoughness": {
        "baseColorTexture": {
          "index": 0
        },
        "metallicFactor": 0.0
      }
    }
  ],
  "meshes": [
    {
      "name": "pika",
      "primitives": [
        {
          "attributes": {
            "JOINTS_0": 5,
            "NORMAL": 1,
            "POSITION": 0,
            "TEXCOORD_0": 2,
            "WEIGHTS_0": 6
          },
          "indices": 3,
          "material": 0,
          "mode": 4
        }
      ]
    }
  ],
  "nodes": [
    {
      "children": [
        1
      ],
      "matrix": [
        1.0,
        0.0,
        0.0,
        0.0,
        0.0,
        2.220446049250313e-16,
        -1.0,
        0.0,
        0.0,
        1.0,
        2.220446049250313e-16,
        0.0,
        0.0,
        0.0,
        0.0,
        1.0
      ],
      "name": "Sketchfab_model"
    },
    {
      "children": [
        2
      ],
      "name": "Root"
    },
    {
      "children": [
        3,
        32,
        31
      ],
      "matrix": [
        0.78232,
        0.0,
        -0.0,
        0.0,
        0.0,
        -0.0,
        0.78232,
        0.0,
        0.0,
        -0.78232,
        -0.0,
        0.0,
        0.0,
        0.0,
        0.0,
        1.0
      ],
      "name": "armature"
    },
    {
      "children": [
        4
      ],
      "name": "armature_rootJoint"
    },
    {
      "children": [
        5
      ],
      "name": "base_armature",
      "rotation": [
        0.7126563191413879,
        0.000961691199336201,
        -0.000961691199336201,
        0.7015119791030884
      ],
      "scale": [
        1.0000025033950806,
        0.9999979138374329,
        1.0000053644180298
      ],
      "translation": [
        0.00014000000373926014,
        0.003860000055283308,
        -0.0050200000405311584
      ]
    },
    {
      "children": [
        6,
        25,
        28
      ],
      "name": "hip_armature",
      "rotation": [
        -0.6804217100143433,
        0.03915119171142578,
        0.0394950732588768,
        0.7307076454162598
      ],
      "scale": [
        0.9999944567680359,
        1.000005841255188,
        0.9999977350234985
      ],
      "translation": [
        0.00011000000085914508,
        -0.06032000109553337,
        -2.38742995262146
      ]
    },
    {
      "children": [
        7
      ],
      "name": "torso_armature",
      "rotation": [
        -0.06913052499294281,
        0.0,
        0.0,
        0.9976076483726501
      ],
      "scale": [
        1.0,
        0.9999980330467224,
        0.9999980330467224
      ],
      "translation": [
        0.0,
        0.38683000206947327,
        0.0
      ]
    },
    {
      "children": [
        8,
        12,
        17,
        22
      ],
      "name": "chest_armature",
      "rotation": [
        -0.16436409950256348,
        0.002406493527814746,
        -0.03343913331627846,
        0.9858298301696777
      ],
      "scale": [
        0.9999963045120239,
        0.999997615814209,
        1.0000041723251343
      ],
      "translation": [
        0.0,
        0.41214001178741455,
        0.0
      ]
    },
    {
      "children": [
        9
      ],
      "name": "neck_armature",
      "rotation": [
        0.14094039797782898,
        -0.00033843168057501316,
        0.025429708883166313,
        0.9896913766860962
      ],
      "scale": [
        1.0000046491622925,
        1.000002145767212,
        0.9999971389770508
      ],
      "translation": [
        0.0,
        0.45058000087738037,
        0.0
      ]
    },
    {
      "children": [
        10,
        11
      ],
      "name": "head_armature",
      "rotation": [
        0.25038641691207886,
        -0.059915002435445786,
        -0.0006802990683354437,
        0.9662899971008301
      ],
      "scale": [
        1.0000011920928955,
        0.9999948143959045,
        0.9999974370002747
      ],
      "translation": [
        0.0,
        0.31321999430656433,
        0.0
      ]
    },
    {
      "name": "eye_L_armature",
      "rotation": [
        0.5614346861839294,
        0.050710029900074005,
        0.02559465356171131,
        0.825569212436676
      ],
      "scale": [
        1.0000035762786865,
        0.9999967813491821,
        0.9999999403953552
      ],
      "translation": [
        -0.15543000400066376,
        0.16234000027179718,
        0.03313999995589256
      ]
    },
    {
      "name": "eye_R_armature",
      "rotation": [
        0.5609857439994812,
        -0.059995368123054504,
        -0.03177105262875557,
        0.8250370621681213
      ],
      "scale": [
        0.9999984502792358,
        1.0000001192092896,
        0.9999924898147583
      ],
      "translation": [
        0.09927000105381012,
        0.16395999491214752,
        0.044920001178979874
      ]
    },
    {
      "children": [
        13
      ],
      "name": "arm.L_armature",
      "rotation": [
        -0.30204910039901733,
        -0.3527824580669403,
        0.8370517492294312,
        -0.28923216462135315
      ],
      "scale": [
        0.9999954700469971,
        1.0000019073486328,
        0.9999998807907104
      ],
      "translation": [
        0.35958999395370483,
        0.4691700041294098,
        -0.04698000103235245
      ]
    },
    {
      "children": [
        14
      ],
      "name": "arm.001.L_armature",
      "rotation": [
        0.6216326355934143,
        0.5106949210166931,
        0.4542970061302185,
        0.38259357213974
      ],
      "scale": [
        0.9999942183494568,
        1.0000050067901611,
        1.0000008344650269
      ],
      "translation": [
        0.0,
        0.6162300109863281,
        0.0
      ]
    },
    {
      "children": [
        15,
        16
      ],
      "name": "hand.L_armature",
      "rotation": [
        0.5772086977958679,
        0.0837804526090622,
        -0.11269929260015488,
        0.8044313788414001
      ],
      "scale": [
        0.9999988079071045,
        1.0000072717666626,
        0.9999955892562866
      ],
      "translation": [
        0.0,
        0.7532399892807007,
        0.0
      ]
    },
    {
      "name": "fingers.L_armature",
      "rotation": [
        0.19210797548294067,
        0.022594662383198738,
        -0.10538796335458755,
        0.9754370450973511
      ],
      "scale": [
        1.0000056028366089,
        1.0000061988830566,
        0.9999995827674866
      ],
      "translation": [
        0.0,
        0.13888999819755554,
        0.0
      ]
    },
    {
      "name": "thumb.L_armature",
      "rotation": [
        0.36266884207725525,
        0.03613413870334625,
        -0.16056275367736816,
        0.9172705411911011
      ],
      "scale": [
        1.000000238418579,
        1.0000042915344238,
        0.9999943375587463
      ],
      "translation": [
        -0.09244000166654587,
        0.11608999967575073,
        0.07129000127315521
      ]
    },
    {
      "children": [
        18
      ],
      "name": "arm.R_armature",
      "rotation": [
        0.23833151161670685,
        -0.24701108038425446,
        0.4232562482357025,
        0.8384736180305481
      ],
      "scale": [
        1.000006079673767,
        1.0000072717666626,
        0.9999977946281433
      ],
      "translation": [
        -0.36792001128196716,
        0.46285000443458557,
        -0.0473800003528595
      ]
    },
    {
      "children": [
        19
      ],
      "name": "arm.001.R_armature",
      "rotation": [
        -0.04795074462890625,
        -0.0089802211150527,
        -0.02157059870660305,
        0.9985764026641846
      ],
      "scale": [
        1.0000046491622925,
        1.0000009536743164,
        0.999995231628418
      ],
      "translation": [
        0.0,
        0.6162300109863281,
        0.0
      ]
    },
    {
      "children": [
        20,
        21
      ],
      "name": "hand.R_armature",
      "rotation": [
        -0.1914069950580597,
        -0.004043192602694035,
        -0.07357656955718994,
        0.9787407517433167
      ],
      "scale": [
        1.0000028610229492,
        0.9999974966049194,
        0.9999953508377075
      ],
      "translation": [
        0.0,
        0.7532399892807007,
        0.0
      ]
    },
    {
      "name": "fingers.R_armature",
      "rotation": [
        0.19210797548294067,
        -0.022594662383198738,
        0.10538796335458755,
        0.9754370450973511
      ],
      "scale": [
        1.0000056028366089,
        1.0000061988830566,
        0.9999995827674866
      ],
      "translation": [
        0.0,
        0.13888999819755554,
        0.0
      ]
    },
    {
      "name": "thumb.R_armature",
      "rotation": [
        0.3626691997051239,
        -0.03613507002592087,
        0.16056056320667267,
        0.9172707200050354
      ],
      "scale": [
        0.9999988079071045,
        1.0000052452087402,
        0.9999920129776001
      ],
      "translation": [
        0.09244000166654587,
        0.11608999967575073,
        0.07129000127315521
      ]
    },
    {
      "children": [
        23
      ],
      "name": "tail_armature",
      "rotation": [
        0.19375966489315033,
        -0.4221550226211548,
        0.8833690881729126,
        0.06246300786733627
      ],
      "scale": [
        0.9999978542327881,
        1.0000032186508179,
        0.9999925494194031
      ],
      "translation": [
        -0.08474999666213989,
        -0.7673199772834778,
        -0.5341100096702576
      ]
    },
    {
      "children": [
        24
      ],
      "name": "tail.001_armature",
      "rotation": [
        -0.13617093861103058,
        0.06892704963684082,
        -0.11459188163280487,
        0.9816187024116516
      ],
      "scale": [
        0.9999931454658508,
        0.999995231628418,
        1.0000001192092896
      ],
      "translation": [
        0.0,
        0.6824899911880493,
        0.0
      ]
    },
    {
      "name": "tail.002_armature",
      "rotation": [
        -0.16709278523921967,
        -0.13809634745121002,
        -0.21723240613937378,
        0.9517455101013184
      ],
      "scale": [
        1.0000009536743164,
        0.9999982714653015,
        1.0000029802322388
      ],
      "translation": [
        0.0,
        0.9095199704170227,
        0.0
      ]
    },
    {
      "children": [
        26
      ],
      "name": "leg.L_armature",
      "rotation": [
        -0.02682601846754551,
        0.056399546563625336,
        0.9891497492790222,
        0.13297531008720398
      ],
      "scale": [
        1.0000042915344238,
        0.9999964833259583,
        1.000001072883606
      ],
      "translation": [
        0.31744998693466187,
        0.15828999876976013,
        -0.01413000002503395
      ]
    },
    {
      "children": [
        27
      ],
      "name": "leg.001.L_armature",
      "rotation": [
        -0.18867714703083038,
        0.0031020883470773697,
        -0.0304770078510046,
        0.9815612435340881
      ],
      "scale": [
        0.999997079372406,
        0.9999920129776001,
        1.0000004768371582
      ],
      "translation": [
        0.0,
        1.1898599863052368,
        0.0
      ]
    },
    {
      "name": "feet.L_armature",
      "rotation": [
        0.5654371976852417,
        -0.046232111752033234,
        -0.014978691004216671,
        0.8233583569526672
      ],
      "scale": [
        1.0000051259994507,
        0.9999961853027344,
        1.0000026226043701
      ],
      "translation": [
        0.0,
        1.2069499492645264,
        0.0
      ]
    },
    {
      "children": [
        29
      ],
      "name": "leg.R_armature",
      "rotation": [
        0.12132549285888672,
        0.31642550230026245,
        0.9375572204589844,
        -0.0783689096570015
      ],
      "scale": [
        1.000007152557373,
        1.0000029802322388,
        0.9999973177909851
      ],
      "translation": [
        -0.31773000955581665,
        0.23699000477790833,
        -0.030980000272393227
      ]
    },
    {
      "children": [
        30
      ],
      "name": "leg.001.R_armature",
      "rotation": [
        -0.0748298317193985,
        0.0010729850037023425,
        -0.00021551937970798463,
        0.9971957206726074
      ],
      "scale": [
        1.0000041723251343,
        0.9999985694885254,
        1.0000001192092896
      ],
      "translation": [
        0.0,
        1.1898599863052368,
        0.0
      ]
    },
    {
      "name": "feet.R_armature",
      "rotation": [
        0.6335463523864746,
        -0.016497548669576645,
        0.0510464571416378,
        0.7718428373336792
      ],
      "scale": [
        0.9999931454658508,
        0.9999951720237732,
        1.0000051259994507
      ],
      "translation": [
        0.0,
        1.2069499492645264,
        0.0
      ]
    },
    {
      "matrix": [
        1.4217399999999998,
        0.0,
        0.0,
        0.0,
        0.0,
        -0.0,
        -1.4217399999999998,
        0.0,
        -0.0,
        1.4217399999999998,
        -0.0,
        0.0,
        -0.0,
        0.3119200000000001,
        -0.0,
        1.0
      ],
      "name": "pika"
    },
    {
      "mesh": 0,
      "name": "pika_0",
      "skin": 0
    }
  ],
  "samplers": [
    {
      "magFilter": 9728,
      "minFilter": 9728,
      "wrapS": 10497,
      "wrapT": 10497
    }
  ],
  "scene": 0,
  "scenes": [
    {
      "name": "Sketchfab_Scene",
      "nodes": [
        0
      ]
    }
  ],
  "skins": [
    {
      "inverseBindMatrices": 4,
      "joints": [
        3,
        4,
        5,
        6,
        7,
        8,
        9,
        10,
        11,
        12,
        13,
        14,
        15,
        16,
        17,
        18,
        19,
        20,
        21,
        22,
        23,
        24,
        25,
        26,
        27,
        28,
        29,
        30
      ],
      "skeleton": 3
    }
  ],
  "textures": [
    {
      "sampler": 0,
      "source": 0
    }
  ]
}
